<?xml version="1.0" encoding="UTF-8"?>
<svg width="20px" height="20px" viewBox="0 0 20 20" version="1.1" xmlns="http://www.w3.org/2000/svg" xmlns:xlink="http://www.w3.org/1999/xlink">
    <!-- Generator: Sketch 50.2 (55047) - http://www.bohemiancoding.com/sketch -->
    <title>facebook</title>
    <desc>Created with Sketch.</desc>
    <defs></defs>
    <g id="Page-1" stroke="none" stroke-width="1" fill="none" fill-rule="evenodd">
        <g id="Index-page" transform="translate(-527.000000, -340.000000)" fill="#000000" fill-rule="nonzero">
            <g id="social-links" transform="translate(521.000000, 182.000000)">
                <g id="facebook" transform="translate(6.000000, 158.000000)">
                    <path d="M18.8958333,0 L1.10416667,0 C0.494791667,0 0,0.494791667 0,1.10416667 L0,18.8958333 C0,19.5052083 0.494791667,20 1.10416667,20 L10,20 L10,12.0833333 L7.609375,12.0833333 L7.609375,9.16666667 L10,9.16666667 L10,7.01041667 C10,4.42708333 11.7916667,3.02083333 14.0989583,3.02083333 C15.203125,3.02083333 16.390625,3.10416667 16.6666667,3.140625 L16.6666667,5.83854167 L14.828125,5.83854167 C13.5729167,5.83854167 13.3333333,6.43229167 13.3333333,7.30729167 L13.3333333,9.16666667 L16.3229167,9.16666667 L15.9322917,12.0833333 L13.3333333,12.0833333 L13.3333333,20 L18.8958333,20 C19.5052083,20 20,19.5052083 20,18.8958333 L20,1.10416667 C20,0.494791667 19.5052083,0 18.8958333,0 Z"></path>
                </g>
            </g>
        </g>
    </g>
</svg>