<?xml version="1.0" encoding="UTF-8"?>
<svg width="20px" height="20px" viewBox="0 0 20 20" version="1.1" xmlns="http://www.w3.org/2000/svg" xmlns:xlink="http://www.w3.org/1999/xlink">
    <!-- Generator: Sketch 50.2 (55047) - http://www.bohemiancoding.com/sketch -->
    <title>linkedin icon</title>
    <desc>Created with Sketch.</desc>
    <defs></defs>
    <g id="Page-1" stroke="none" stroke-width="1" fill="none" fill-rule="evenodd">
        <g id="Index-page" transform="translate(-527.000000, -502.000000)" fill="#000000" fill-rule="nonzero">
            <g id="social-links" transform="translate(521.000000, 182.000000)">
                <g id="linkedin" transform="translate(6.000000, 320.000000)">
                    <path d="M18.4006252,0 L1.70877833,0 C0.797082574,0 0,0.656420943 0,1.55769732 L0,18.286012 C0,19.192498 0.797082574,20 1.70877833,20 L18.3954155,20 C19.3123209,20 20,19.1872884 20,18.286012 L20,1.55769732 C20.0052097,0.656420943 19.3123209,0 18.4006252,0 Z M6.19953113,16.6710081 L3.33420162,16.6710081 L3.33420162,7.76243813 L6.19953113,7.76243813 L6.19953113,16.6710081 Z M4.86585048,6.40791873 L4.84501172,6.40791873 C3.92810628,6.40791873 3.33420162,5.72544934 3.33420162,4.87106017 C3.33420162,4.00104194 3.94373535,3.33420162 4.88147955,3.33420162 C5.81922376,3.33420162 6.39228966,3.99583225 6.41312842,4.87106017 C6.41312842,5.72544934 5.81922376,6.40791873 4.86585048,6.40791873 Z M16.6710081,16.6710081 L13.8056786,16.6710081 L13.8056786,11.7999479 C13.8056786,10.6329773 13.3889034,9.83589476 12.352175,9.83589476 C11.5603022,9.83589476 11.0914301,10.3724928 10.8830425,10.8934618 C10.8048971,11.0810107 10.7840583,11.3362855 10.7840583,11.59677 L10.7840583,16.6710081 L7.91872884,16.6710081 L7.91872884,7.76243813 L10.7840583,7.76243813 L10.7840583,9.00234436 C11.2008336,8.4084397 11.8520448,7.55405053 13.3680646,7.55405053 C15.2487627,7.55405053 16.6710081,8.79395676 16.6710081,11.4665277 L16.6710081,16.6710081 Z" id="linkedin-icon"></path>
                </g>
            </g>
        </g>
    </g>
</svg>