<?xml version="1.0" encoding="UTF-8"?>
<svg width="20px" height="20px" viewBox="0 0 20 20" version="1.1" xmlns="http://www.w3.org/2000/svg" xmlns:xlink="http://www.w3.org/1999/xlink">
    <g id="Page-1" stroke="none" stroke-width="1" fill="none" fill-rule="evenodd">
        <g id="Index-page" transform="translate(-521.000000, -260.000000)" fill="#000000" fill-rule="nonzero">
            <g id="social-links" transform="translate(521.000000, 182.000000)">
                <g id="medium" transform="translate(0.000000, 78.000000)">
                    <g id="medium-icon">
                        <path d="M0,0 L20,0 L20,20 L0,20 L0,0 Z M5.77272618,6.68879543 L5.77272618,12.627263 C5.80927013,12.8414856 5.7417397,13.0603155 5.59082094,13.2167202 L4.17948718,14.9286544 L4.17948718,15.1544039 L8.18140247,15.1544039 L8.18140247,14.9286544 L6.77006871,13.2167202 C6.61804307,13.0605744 6.54633106,12.8431866 6.57561828,12.627263 L6.57561828,7.49146053 L10.0882712,15.1544039 L10.4959898,15.1544039 L13.5131078,7.49146053 L13.5131078,13.5992403 C13.5131078,13.7622816 13.5131078,13.7936357 13.4064737,13.9002397 L12.3213149,14.9537376 L12.3213149,15.1794872 L17.5902943,15.1794872 L17.5902943,14.9537376 L16.542771,13.925323 C16.4502999,13.8548361 16.4044295,13.7389861 16.4235917,13.6243236 L16.4235917,6.06798414 C16.4044295,5.95332166 16.4502999,5.83747156 16.542771,5.76698473 L17.6153846,4.73857007 L17.6153846,4.51282051 L13.9020087,4.51282051 L11.2549738,11.1159951 L8.24412842,4.51282051 L4.34884723,4.51282051 L4.34884723,4.73857007 L5.60336613,6.24983795 C5.72652308,6.36084421 5.78941926,6.52386228 5.77272618,6.68879543 Z" id="Combined-Shape"></path>
                    </g>
                </g>
            </g>
        </g>
    </g>
</svg>