<?xml version="1.0" encoding="UTF-8"?>
<svg width="20px" height="20px" viewBox="0 0 20 20" version="1.1" xmlns="http://www.w3.org/2000/svg" xmlns:xlink="http://www.w3.org/1999/xlink">
    <!-- Generator: Sketch 50.2 (55047) - http://www.bohemiancoding.com/sketch -->
    <title>skype icon</title>
    <desc>Created with Sketch.</desc>
    <defs></defs>
    <g id="Page-1" stroke="none" stroke-width="1" fill="none" fill-rule="evenodd">
        <g id="Index-page" transform="translate(-527.000000, -457.000000)" fill="#000000" fill-rule="nonzero">
            <g id="social-links" transform="translate(521.000000, 182.000000)">
                <g id="skype" transform="translate(6.000000, 275.000000)">
                    <path d="M19.421875,12.125 C19.5677083,11.4739583 19.640625,10.8020833 19.640625,10.109375 C19.640625,4.91666667 15.3697917,0.703125 10.0989583,0.703125 C9.54166667,0.703125 9,0.75 8.46875,0.838541667 C7.61979167,0.307291667 6.61458333,0 5.53125,0 C2.47916667,0 0,2.44270833 0,5.453125 C0,6.46354167 0.276041667,7.40625 0.760416667,8.21354167 C0.635416667,8.82291667 0.567708333,9.45833333 0.567708333,10.1041667 C0.567708333,15.3020833 4.83854167,19.5104167 10.1041667,19.5104167 C10.703125,19.5104167 11.2864583,19.4583333 11.8489583,19.3541667 C12.6302083,19.765625 13.5208333,20 14.4635417,20 C17.5208333,20 19.9947917,17.5572917 19.9947917,14.546875 C20,13.6770833 19.7916667,12.8541667 19.421875,12.125 Z M14.9947917,14.5989583 C14.5520833,15.2135417 13.9010417,15.703125 13.0572917,16.046875 C12.21875,16.390625 11.21875,16.5625 10.0729167,16.5625 C8.703125,16.5625 7.55729167,16.3229167 6.65625,15.8541667 C6.015625,15.5104167 5.48958333,15.0520833 5.08333333,14.4791667 C4.67708333,13.90625 4.47395833,13.3333333 4.47395833,12.78125 C4.47395833,12.4375 4.609375,12.140625 4.86979167,11.890625 C5.13020833,11.6510417 5.46875,11.5260417 5.86458333,11.5260417 C6.19270833,11.5260417 6.47395833,11.6197917 6.703125,11.8125 C6.921875,11.9947917 7.109375,12.265625 7.26041667,12.6197917 C7.43229167,13 7.61458333,13.3229167 7.8125,13.578125 C8,13.8229167 8.265625,14.0260417 8.609375,14.1875 C8.95833333,14.3489583 9.421875,14.4322917 9.99479167,14.4322917 C10.78125,14.4322917 11.4270833,14.265625 11.9114583,13.9375 C12.390625,13.6197917 12.6197917,13.234375 12.6197917,12.765625 C12.6197917,12.3958333 12.5,12.1041667 12.25,11.875 C11.9895833,11.6354167 11.6510417,11.4479167 11.2291667,11.3229167 C10.796875,11.1875 10.2083333,11.046875 9.47916667,10.8958333 C8.48958333,10.6875 7.65104167,10.4375 6.97916667,10.15625 C6.296875,9.86979167 5.74479167,9.46875 5.33854167,8.97395833 C4.92708333,8.46875 4.72395833,7.83333333 4.72395833,7.08854167 C4.72395833,6.375 4.94270833,5.73958333 5.36979167,5.1875 C5.796875,4.640625 6.41666667,4.21354167 7.22395833,3.921875 C8.015625,3.63020833 8.95833333,3.484375 10.0208333,3.484375 C10.875,3.484375 11.6197917,3.58333333 12.2447917,3.77083333 C12.875,3.96354167 13.4010417,4.22395833 13.8229167,4.546875 C14.2395833,4.86979167 14.5520833,5.21354167 14.75,5.57291667 C14.9479167,5.9375 15.046875,6.296875 15.046875,6.64583333 C15.046875,6.97916667 14.9166667,7.28645833 14.65625,7.55208333 C14.3958333,7.81770833 14.0677083,7.95833333 13.6770833,7.95833333 C13.3229167,7.95833333 13.046875,7.875 12.8541667,7.70833333 C12.6770833,7.55208333 12.4895833,7.3125 12.2864583,6.96354167 C12.046875,6.52083333 11.7604167,6.16666667 11.4322917,5.91666667 C11.109375,5.67708333 10.578125,5.55208333 9.83854167,5.55208333 C9.15625,5.55208333 8.59895833,5.6875 8.1875,5.953125 C7.79166667,6.20833333 7.59895833,6.50520833 7.59895833,6.85416667 C7.59895833,7.06770833 7.66145833,7.24479167 7.79166667,7.40104167 C7.92708333,7.5625 8.11458333,7.70833333 8.359375,7.828125 C8.609375,7.953125 8.86979167,8.05208333 9.125,8.11979167 C9.390625,8.19270833 9.83333333,8.30208333 10.4427083,8.4375 C11.21875,8.59895833 11.9270833,8.78645833 12.5520833,8.97916667 C13.1875,9.18229167 13.734375,9.42708333 14.1822917,9.71354167 C14.640625,10.0052083 15,10.3854167 15.2604167,10.8333333 C15.515625,11.28125 15.6458333,11.84375 15.6458333,12.4895833 C15.6666667,13.2760417 15.4427083,13.984375 14.9947917,14.5989583 Z" id="skype-icon"></path>
                </g>
            </g>
        </g>
    </g>
</svg>