<?xml version="1.0" encoding="UTF-8"?>
<svg width="20px" height="20px" viewBox="0 0 20 20" version="1.1" xmlns="http://www.w3.org/2000/svg" xmlns:xlink="http://www.w3.org/1999/xlink">
    <!-- Generator: Sketch 50.2 (55047) - http://www.bohemiancoding.com/sketch -->
    <title>telegram icon</title>
    <desc>Created with Sketch.</desc>
    <defs></defs>
    <g id="Page-1" stroke="none" stroke-width="1" fill="none" fill-rule="evenodd">
        <g id="Index-page" transform="translate(-522.000000, -380.000000)" fill="#000000" fill-rule="nonzero">
            <g id="social-links" transform="translate(521.000000, 182.000000)">
                <g id="telegram" transform="translate(1.000000, 198.000000)">
                    <g id="telegram-icon">
                        <path d="M10,20 C4.4771525,20 0,15.5228475 0,10 C0,4.4771525 4.4771525,0 10,0 C15.5228475,0 20,4.4771525 20,10 C20,15.5228475 15.5228475,20 10,20 Z M15.088,5.4055 C15.088,4.7565 14.207,5.1485 14.2075,5.149 L3.4895,9.407 C3.4895,9.407 2.9825,9.5825 3.0225,9.907 C3.0625,10.2315 3.4765,10.38 3.4765,10.38 L6.1725,11.299 L7.774,12.083 L12.1785,15.503 C12.9125,15.8275 13.1795,15.1515 13.1795,15.1515 L15.088,5.4055 Z" id="Combined-Shape"></path>
                        <path d="M7.435,15.0415 C7.435,15.0415 7.3065,15.0295 7.146,14.5155 C6.986,14.002 6.1715,11.2985 6.1715,11.2985 L12.645,7.135 C12.645,7.135 13.0185,6.905 13.0055,7.135 C13.0055,7.135 13.072,7.1755 12.872,7.365 C12.672,7.5545 7.7865,12.0015 7.7865,12.0015" id="Shape"></path>
                    </g>
                </g>
            </g>
        </g>
    </g>
</svg>